<svg xmlns="http://www.w3.org/2000/svg" width="31" height="31" viewBox="0 0 31 31" fill="none"><rect width="31" height="31" rx="15.5" fill="#FF6500"></rect><path d="M13.684 24.995C13.6971 24.9851 13.7101 24.9752 13.7296 24.9628C13.5494 24.8685 13.5059 24.6922 13.5038 24.4937C13.5016 24.2405 13.5038 23.9873 13.5038 23.7341C13.5038 21.4606 13.5038 19.1845 13.5038 16.9109C13.5038 16.8836 13.5038 16.8563 13.5038 16.8265C13.5081 16.767 13.4821 16.7446 13.4299 16.7446C13.3083 16.7446 13.1867 16.7446 13.0651 16.7446C12.5612 16.7446 12.0596 16.7446 11.5557 16.7446C11.4862 16.7446 11.4146 16.7397 11.3451 16.7297C11.1279 16.6975 11.0063 16.5485 11.0019 16.2954C10.9976 16.0323 11.0019 15.7692 11.0019 15.5085C11.0019 14.8061 11.0019 14.1062 11.0019 13.4038C11.0019 13.3665 11.0019 13.3293 11.0019 13.2921C11.0106 12.9868 11.1518 12.8229 11.4211 12.8229C12.0726 12.8229 12.7241 12.8229 13.3756 12.8229C13.5016 12.8229 13.5016 12.8229 13.5016 12.6839C13.5016 12.0411 13.4973 11.3982 13.5016 10.7554C13.5081 10.0554 13.5863 9.3679 13.81 8.71263C14.2726 7.36983 15.1217 6.53089 16.3401 6.16602C16.7397 6.0444 17.148 6.00717 17.5606 6.00221C18.2143 5.99724 18.8702 6.00221 19.5238 6.00221C19.5608 6.00221 19.5999 6.00221 19.6368 6.00717C19.8865 6.04688 19.9973 6.19333 19.9973 6.5011C19.9973 7.34501 19.9973 8.18891 19.9973 9.03282C19.9973 9.14699 20.0081 9.26117 19.9864 9.37534C19.956 9.54661 19.8518 9.66327 19.7019 9.6856C19.6389 9.69553 19.5738 9.7005 19.5086 9.7005C19.0157 9.70298 18.5248 9.7005 18.0319 9.70794C17.8603 9.70794 17.6931 9.73525 17.5302 9.80474C17.25 9.9214 17.0828 10.2019 17.0567 10.5444C17.0025 11.2692 17.0394 11.9964 17.0242 12.7212C17.0242 12.8081 17.0459 12.8304 17.1197 12.8304C17.9124 12.8279 18.7051 12.8304 19.4956 12.8304C19.6585 12.8304 19.7866 12.8924 19.8583 13.0687C19.8865 13.1357 19.8952 13.2101 19.8952 13.2846C19.8952 14.265 19.8952 15.243 19.8952 16.2234C19.8952 16.3252 19.8887 16.4294 19.8474 16.5212C19.7693 16.6975 19.6281 16.7496 19.4674 16.7521C18.9853 16.7521 18.5053 16.7521 18.0232 16.7521C17.7256 16.7521 17.4281 16.7521 17.1306 16.7521C17.0242 16.7521 17.0242 16.7521 17.0242 16.8762C17.0242 18.9239 17.0242 20.9741 17.0242 23.0218C17.0242 23.4909 17.0242 23.96 17.0242 24.4316C17.0242 24.6451 17.0046 24.8486 16.8157 24.9677C16.8092 24.9702 16.8113 24.9901 16.8092 25C15.7646 25 14.7221 25 13.6775 25L13.684 24.995Z" fill="white"></path></svg>