<svg xmlns="http://www.w3.org/2000/svg" width="56" height="48" viewBox="0 0 56 48" fill="none"><path d="M0 47.3398C0 46.6555 0 45.9711 0 45.2867C0.0218292 45.2464 0.0467769 45.206 0.0639285 45.164C0.227648 44.7589 0.464651 44.591 0.882525 44.5878C0.999467 44.5878 1.11641 44.5927 1.23179 44.5878C1.83989 44.5572 1.85081 44.4845 1.85081 43.9535C1.85081 33.1423 1.85549 22.3328 1.83989 11.5216C1.83989 10.7259 2.58988 9.99469 3.30245 9.97048C3.94486 9.94949 4.58414 9.97371 5.22498 9.97855C5.8861 9.98501 6.54565 9.97693 7.20677 9.95595C8.10021 9.92851 8.99365 9.95111 9.88709 9.97532C10.5529 9.99469 11.2202 9.97855 11.8876 9.95434C12.9822 9.91398 14.0767 9.97855 15.1713 9.97855C15.4925 9.97855 15.6126 9.85749 15.6141 9.53467C15.6204 8.60335 15.6063 7.67202 15.6484 6.73907C15.6921 5.75448 15.6297 4.76827 15.6141 3.78368C15.6063 3.293 15.6983 3.26879 15.1557 3.12352C14.7878 3.02506 14.6038 2.74098 14.6022 2.34876C14.6022 1.86614 14.6006 1.38353 14.6022 0.900919C14.6053 0.465115 14.872 0.135842 15.2836 0.0454527C15.4551 0.00994278 15.6297 0.000258254 15.8044 0.000258254C24.193 0.000258254 32.5833 0.000258254 40.9719 0.000258254C41.0561 0.000258254 41.1403 -0.00135583 41.2245 0.00348643C41.8513 0.0454527 42.1507 0.376341 42.1523 1.02198C42.1523 1.36416 42.1507 1.70635 42.1523 2.04854C42.1523 2.17443 42.1835 2.30356 42.1679 2.42785C42.1164 2.84428 41.8279 3.11706 41.3914 3.16548C41.2183 3.18485 41.1045 3.24942 41.1045 3.44472C41.1045 3.87407 41.0967 4.3018 41.1138 4.73115C41.1497 5.58823 41.1434 6.44531 41.1138 7.30401C41.0873 8.08038 41.0702 8.85837 41.1341 9.63475C41.1544 9.87363 41.2245 9.93658 41.4553 9.94788C41.7656 9.96241 42.0759 9.97855 42.3877 9.97855C43.094 9.97855 43.7988 9.97855 44.5051 9.95595C45.4048 9.9269 46.3045 9.9495 47.2057 9.97532C47.8793 9.99469 48.5529 9.97855 49.2265 9.95272C50.3663 9.91076 51.5061 9.98016 52.6459 9.98178C52.9016 9.98178 53.1433 10.0528 53.3631 10.1997C53.8933 10.5548 54.1287 11.06 54.1287 11.7089C54.1256 22.4183 54.1272 33.1278 54.1272 43.8389C54.1272 43.9454 54.124 44.0536 54.1272 44.1601C54.135 44.3877 54.227 44.4974 54.4437 44.5523C54.6557 44.6056 54.8694 44.5797 55.083 44.583C55.61 44.591 55.9639 44.9139 55.9842 45.4546C56.0045 45.984 56.006 46.515 55.9842 47.0428C55.9593 47.6239 55.7129 47.8854 55.1578 47.9758C55.0253 47.9968 54.8865 47.9952 54.7509 47.9952C36.8899 47.9952 19.0289 47.9952 1.16942 48C0.665792 48 0.241681 47.9015 0.0296254 47.3657C0.0249477 47.3544 0.0124739 47.3463 0.00311846 47.3366L0 47.3398ZM24.1166 40.0877C24.1166 41.3613 24.1166 42.6348 24.1166 43.9083C24.1166 44.2198 24.31 44.4555 24.6016 44.5184C24.7746 44.5555 24.9493 44.5491 25.1239 44.5491C26.2122 44.5491 27.3006 44.5491 28.3874 44.5475C29.5786 44.5475 30.7699 44.5491 31.9627 44.5442C32.5505 44.541 32.7938 44.286 32.7938 43.6904C32.7938 41.3031 32.7938 38.9175 32.7938 36.5303C32.7938 36.456 32.7969 36.3818 32.7922 36.3092C32.761 35.7943 32.5256 35.5635 32.0235 35.5635C29.6332 35.5635 27.2445 35.5635 24.8542 35.5635C24.3427 35.5635 24.1182 35.8007 24.1182 36.3269C24.1182 37.5811 24.1182 38.8336 24.1182 40.0877H24.1166ZM46.0363 34.114C45.2926 34.114 44.5472 34.114 43.8035 34.114C43.2468 34.114 43.0005 34.3674 43.0052 34.9517C43.0098 35.5554 43.0364 36.1574 43.0364 36.7595C43.0348 37.7102 43.013 38.6625 43.0083 39.6132C43.0052 40.1459 43.2609 40.4025 43.7723 40.4025C45.2676 40.4025 46.7629 40.4025 48.2582 40.4025C48.8414 40.4025 49.0846 40.1523 49.0846 39.547C49.0846 39.1257 49.0768 38.7029 49.0768 38.2816C49.0768 37.1549 49.0893 36.0299 49.0799 34.9033C49.0753 34.3577 48.8149 34.1124 48.2894 34.1124C47.5379 34.1124 46.7879 34.1124 46.0363 34.1124V34.114ZM6.88713 37.2792C6.88713 37.5746 6.88713 37.87 6.88713 38.1637C6.88713 38.6996 6.88089 39.2371 6.89024 39.773C6.89648 40.0861 7.06488 40.2814 7.35645 40.3605C7.47652 40.3928 7.59814 40.4009 7.72131 40.4009C9.17296 40.4009 10.623 40.4009 12.0747 40.4009C12.7202 40.4009 12.9307 40.1894 12.9307 39.526C12.9307 38.0379 12.9307 36.548 12.9307 35.0599C12.9307 34.9662 12.9338 34.871 12.9245 34.779C12.8839 34.3626 12.7483 34.2125 12.3522 34.1495C12.2446 34.1318 12.1339 34.1172 12.0248 34.1172C10.6262 34.1156 9.22597 34.1172 7.82734 34.1172C7.73067 34.1172 7.634 34.1269 7.53733 34.1414C7.07579 34.2141 6.89024 34.4255 6.88713 34.9049C6.88245 35.6958 6.88713 36.4867 6.88713 37.2792ZM46.0425 23.2706V23.2673C46.7941 23.2673 47.5441 23.2673 48.2956 23.2673C48.8414 23.2673 49.0815 23.0236 49.0799 22.4603C49.0799 22.0713 49.0503 21.6823 49.0628 21.2949C49.1018 20.1425 49.0659 18.99 49.0768 17.8375C49.0815 17.292 48.8008 17.0111 48.2723 17.0111C47.1527 17.0111 46.0316 17.0111 44.9121 17.0111C44.5176 17.0111 44.1216 17.0079 43.7271 17.0144C43.278 17.0224 43.0457 17.2581 43.0332 17.7181C43.0223 18.1458 43.0208 18.5752 43.013 19.0029C42.9911 20.2151 42.9865 21.4289 43.0317 22.6411C43.0457 22.9994 43.2313 23.2125 43.5758 23.2576C43.6912 23.2722 43.8082 23.2706 43.9251 23.2706C44.6314 23.2706 45.3362 23.2706 46.0425 23.2706ZM33.8384 17.1629C33.8384 17.1629 33.8384 17.1661 33.8384 17.1677C33.0619 17.1677 32.2839 17.1596 31.5074 17.1709C31.0271 17.1774 30.8354 17.3808 30.8338 17.8747C30.8291 19.5033 30.8322 21.1335 30.8291 22.7621C30.8291 22.9219 30.8634 23.0688 30.9632 23.1915C31.1082 23.3706 31.3031 23.4239 31.5199 23.4239C32.7953 23.4239 34.0723 23.4239 35.3478 23.4239C35.6518 23.4239 35.9574 23.432 36.2615 23.4207C36.5936 23.4094 36.7901 23.2254 36.8431 22.8896C36.8602 22.7783 36.8743 22.6637 36.8743 22.5507C36.8758 21.0092 36.8774 19.4662 36.8743 17.9247C36.8743 17.4227 36.6466 17.1725 36.1679 17.1661C35.3914 17.1564 34.6134 17.1629 33.8369 17.1629H33.8384ZM6.88089 20.1376C6.88089 20.1376 6.88557 20.1376 6.88869 20.1376C6.88869 20.9753 6.88401 21.813 6.89024 22.6508C6.89336 22.9687 7.06644 23.1802 7.37049 23.2415C7.50926 23.2689 7.65427 23.2673 7.79616 23.2673C9.25872 23.2673 10.7228 23.2673 12.1854 23.2673C12.6921 23.2673 12.9307 23.0252 12.9307 22.4893C12.9323 20.914 12.9323 19.3386 12.9307 17.7649C12.9307 17.2581 12.6875 17.0079 12.2041 17.0079C10.6823 17.0079 9.16049 17.0079 7.64023 17.0111C7.09762 17.0111 6.88713 17.2242 6.88401 17.7875C6.87777 18.572 6.88401 19.3564 6.88401 20.1392L6.88089 20.1376ZM46.0519 25.7337V25.7369C45.2941 25.7369 44.5363 25.7563 43.7801 25.7304C43.3139 25.7143 43.027 26.0307 43.0286 26.4858C43.0332 28.0402 43.0114 29.5946 43.0052 31.1489C43.0036 31.7542 43.2297 31.9834 43.8191 31.9931C43.9423 31.9947 44.0654 31.9996 44.1886 31.9899C44.725 31.9479 45.2629 31.9673 45.8009 31.9689C46.6366 31.9705 47.4708 31.9899 48.3066 31.9931C48.7307 31.9931 48.9801 31.8107 49.0643 31.4459C49.0893 31.3362 49.0877 31.2199 49.0877 31.107C49.0877 29.6462 49.083 28.1838 49.0799 26.7231C49.0799 26.6166 49.0628 26.51 49.0597 26.4035C49.0456 25.887 48.7556 25.7256 48.3268 25.732C47.569 25.7417 46.8112 25.7353 46.0535 25.7353L46.0519 25.7337ZM33.8182 14.6917C34.6149 14.6917 35.4117 14.6917 36.2085 14.6917C36.5718 14.6917 36.7932 14.4996 36.8556 14.1332C36.8743 14.0218 36.8774 13.9072 36.8774 13.7926C36.8789 12.8129 36.8774 11.8348 36.8774 10.855C36.8774 10.2981 36.8805 9.74128 36.8743 9.18603C36.8696 8.70826 36.6217 8.45324 36.1664 8.44032C36.0042 8.43548 35.8421 8.43871 35.6799 8.43709C34.7412 8.42902 33.8026 8.49843 32.8639 8.44678C32.4242 8.42257 31.983 8.42741 31.5433 8.44194C31.0131 8.45969 30.8213 8.67759 30.8229 9.21993C30.8229 9.45397 30.8276 9.68963 30.8276 9.92367C30.826 11.265 30.8229 12.6063 30.8213 13.946C30.8213 14.4641 31.0443 14.6933 31.5433 14.6933C32.301 14.6933 33.0588 14.6933 33.8166 14.6933L33.8182 14.6917ZM6.88869 28.8376H6.88557C6.88557 29.622 6.88245 30.4064 6.88557 31.1909C6.88869 31.7671 7.1101 31.9947 7.6683 31.9931C8.13451 31.9931 8.60072 31.956 9.06693 31.9737C9.90892 32.0044 10.7509 31.985 11.5929 31.9915C11.8252 31.9931 12.0607 32.006 12.2914 31.9786C12.7498 31.9253 12.9291 31.7155 12.9307 31.2377C12.9354 29.6349 12.9354 28.0321 12.9307 26.4293C12.9307 25.9742 12.6968 25.7433 12.2493 25.7401C11.7052 25.7353 11.161 25.7385 10.6168 25.7385C9.61266 25.7385 8.60852 25.7337 7.60437 25.7385C7.12725 25.7417 6.88869 25.9968 6.88869 26.4842C6.88713 27.2687 6.88869 28.0531 6.88869 28.8376ZM19.9176 20.3232C19.9176 21.1271 19.9176 21.9325 19.9176 22.7363C19.9176 23.156 20.1453 23.4158 20.5444 23.4158C22.099 23.4158 23.6535 23.4481 25.2065 23.3948C25.7445 23.3771 25.9503 23.1495 25.9503 22.5943C25.9503 21.0528 25.9503 19.5097 25.9503 17.9683C25.9503 17.434 25.7242 17.1758 25.2128 17.1758C23.6847 17.1758 22.1567 17.1322 20.6271 17.1742C20.1453 17.1871 19.9176 17.4324 19.9161 17.9295C19.9161 18.7269 19.9161 19.5259 19.9161 20.3232H19.9176ZM30.8276 28.6826C30.8276 28.6826 30.8307 28.6826 30.8322 28.6826C30.8322 29.4606 30.8322 30.2386 30.8322 31.0166C30.8322 31.1231 30.8322 31.2329 30.8494 31.3378C30.9055 31.6444 31.1425 31.8204 31.5386 31.8285C31.8754 31.8349 32.2122 31.7946 32.5474 31.8123C33.7511 31.8753 34.9564 31.78 36.1601 31.8301C36.6061 31.8494 36.8696 31.5847 36.8727 31.1183C36.8805 29.5155 36.8789 27.9127 36.8727 26.3099C36.8711 25.887 36.6716 25.6723 36.2708 25.611C36.1492 25.5916 36.026 25.5819 35.9044 25.5819C34.4668 25.5787 33.0276 25.5771 31.59 25.5803C31.0256 25.5803 30.826 25.8015 30.8276 26.3906C30.8291 27.1557 30.8276 27.9191 30.8276 28.6842V28.6826ZM19.9176 28.6826C19.9176 29.5268 19.9176 30.3725 19.9176 31.2167C19.9176 31.5056 20.1094 31.7494 20.3667 31.7897C20.5647 31.8204 20.7643 31.8349 20.967 31.8252C21.7949 31.7881 22.6245 31.8042 23.4524 31.8188C24.0543 31.8301 24.6577 31.8398 25.2596 31.8252C25.7398 31.8139 25.9503 31.5686 25.9503 31.0747C25.9503 30.3838 25.9581 29.693 25.9487 29.0022C25.9363 28.0579 25.9877 27.1121 25.9175 26.1679C25.8879 25.7756 25.7039 25.5868 25.3204 25.5787C25.035 25.5723 24.7497 25.5787 24.4659 25.5787C23.1515 25.5787 21.837 25.5723 20.521 25.5787C20.1219 25.5819 19.9176 25.8192 19.9161 26.2276C19.9161 27.0459 19.9161 27.8643 19.9161 28.681L19.9176 28.6826ZM19.9176 11.6039C19.9176 12.4158 19.9176 13.2261 19.9176 14.038C19.9176 14.4528 20.1156 14.6675 20.5195 14.6933C20.6427 14.7014 20.7658 14.6998 20.889 14.6965C21.4332 14.6868 21.9774 14.6513 22.52 14.6707C23.4134 14.7014 24.3069 14.6885 25.2003 14.7014C25.7117 14.7078 25.9487 14.4625 25.9487 13.9282C25.9487 12.3868 25.9487 10.8437 25.9487 9.30225C25.9487 8.72763 25.7164 8.47906 25.1613 8.46776C24.7855 8.45969 24.4098 8.47099 24.034 8.46131C22.888 8.43225 21.7419 8.40481 20.5975 8.47422C20.125 8.50327 19.9176 8.73247 19.9161 9.23123C19.9161 10.0221 19.9161 10.813 19.9161 11.6039H19.9176Z" fill="white"></path></svg>