<svg xmlns="http://www.w3.org/2000/svg" width="64" height="52" viewBox="0 0 64 52" fill="none"><path d="M15.9101 43.2155C16.0033 41.5871 15.7375 39.596 16.0585 37.6223C16.8248 32.9143 20.7562 29.2633 25.4469 28.8847C27.801 28.6954 30.155 28.7777 32.5107 28.8338C34.2607 28.8759 36.0158 28.7742 37.7675 28.7795C42.001 28.7882 45.3421 30.4779 47.5339 34.2482C48.4451 35.8152 48.8783 37.5399 48.899 39.3488C48.9318 42.3566 48.8887 45.3644 48.9232 48.3704C48.9318 49.1539 48.635 49.5097 47.9119 49.7253C43.7009 50.9838 39.4122 51.734 35.0252 51.9373C28.8554 52.2248 22.8099 51.5289 16.8852 49.7306C16.1414 49.5045 15.8704 49.1644 15.8946 48.3862C15.9446 46.7824 15.9101 45.1751 15.9101 43.2172V43.2155Z" fill="white"></path><path d="M0.0257142 35.1403C0.125811 33.4594 -0.165851 31.4086 0.193118 29.3789C1.01461 24.7235 4.99778 21.139 9.6385 20.8095C13.3455 20.5466 17.0509 20.9024 20.7562 20.7955C21.2549 20.7815 21.4638 21.0497 21.6329 21.4651C22.2542 22.9952 23.1395 24.3537 24.3096 25.5052C24.8515 26.0381 24.5323 26.1152 24.0318 26.2116C21.6691 26.6708 19.5395 27.6454 17.7274 29.2667C14.8919 31.803 13.3007 34.965 13.1885 38.8335C13.1471 40.2339 13.1661 41.6362 13.1747 43.0366C13.1781 43.6414 12.9417 43.8482 12.3325 43.7974C8.56849 43.4819 4.88043 42.7755 1.23724 41.7571C0.274231 41.4872 -0.0450442 41.0385 0.00500442 40.0499C0.082666 38.5355 0.0257142 37.0141 0.0257142 35.1386V35.1403Z" fill="white"></path><path d="M49.7999 20.8008C51.5309 20.9077 53.6674 20.5852 55.7764 21.0041C60.3343 21.9103 63.8877 26.1626 63.9706 30.8863C64.0275 34.0974 63.9757 37.3085 63.9999 40.5197C64.0051 41.1121 63.8032 41.4259 63.2423 41.5959C59.7337 42.6581 56.163 43.3802 52.5146 43.7167C51.7811 43.7851 51.6465 43.4959 51.6396 42.8404C51.6241 41.0332 51.7708 39.2226 51.4981 37.419C50.6524 31.8469 46.5985 27.4824 41.1501 26.3063C40.9258 26.2572 40.7014 26.2064 40.4736 26.1678C40.087 26.1012 40.0318 25.9154 40.3096 25.6542C41.6437 24.401 42.5877 22.8848 43.2711 21.1864C43.4368 20.7727 43.8044 20.8008 44.1513 20.8008C45.9047 20.799 47.6582 20.8008 49.8016 20.8008H49.7999Z" fill="white"></path><path d="M41.1916 17.1462C41.1691 22.075 37.2515 26.01 32.3796 25.9943C27.4938 25.9785 23.5123 21.9471 23.5399 17.041C23.5676 12.1209 27.5818 8.05446 32.402 8.06147C37.324 8.07024 41.2157 12.0929 41.1933 17.1462H41.1916Z" fill="white"></path><path d="M16.5556 17.9297C12.5171 17.9087 9.20704 15.3566 8.03003 11.4654C6.93587 7.84942 8.37347 3.76016 11.5041 1.59371C14.7504 -0.65512 18.8975 -0.509638 21.9591 1.93901C23.5572 3.21855 24.5461 4.88019 25.0845 6.85033C25.2381 7.41122 25.1622 7.82663 24.7048 8.24555C22.3784 10.3699 21.0737 13.0289 20.8218 16.1997C20.7803 16.7115 20.5456 16.9902 20.1038 17.1743C18.9199 17.6685 17.7049 17.9876 16.5556 17.9297Z" fill="white"></path><path d="M47.4632 17.9051C47.1767 17.9051 46.8867 17.9244 46.602 17.9016C44.3878 17.7228 44.1824 17.4686 43.8493 15.2741C43.4092 12.3663 42.0872 9.92813 39.8471 8.03336C38.7616 7.1149 38.7547 7.12541 39.2707 5.77401C40.8395 1.67599 45.0712 -0.685017 49.2822 0.184366C53.5415 1.06602 56.4719 4.87834 56.3511 9.38301C56.2389 13.5774 52.9478 17.2583 48.7523 17.8665C48.3278 17.9279 47.8929 17.9208 47.4632 17.9454C47.4632 17.9314 47.4632 17.9191 47.4632 17.9051Z" fill="white"></path></svg>