<svg xmlns="http://www.w3.org/2000/svg" width="31" height="31" viewBox="0 0 31 31" fill="none"><rect width="31" height="31" rx="15.5" fill="#FF6500"></rect><path d="M23 22.9779C22.8819 22.9847 22.7883 22.9954 22.694 22.9954C21.3472 22.9969 20.0012 22.9961 18.6545 22.9969C18.61 22.9969 18.5648 22.9938 18.5203 22.9984C18.3876 23.0098 18.2994 22.9604 18.2166 22.8496C16.8583 21.042 15.4954 19.2374 14.1326 17.4328C14.0574 17.3334 13.9761 17.2377 13.8994 17.1428C13.8059 17.2309 13.7246 17.3 13.6509 17.3774C12.2474 18.8616 10.8455 20.3458 9.44272 21.8308C9.10756 22.1861 8.77241 22.5406 8.43802 22.8974C8.38894 22.9498 8.34445 22.9954 8.26316 22.9946C7.88659 22.9923 7.51002 22.9946 7.13422 22.9946C7.10354 22.9946 7.07286 22.984 7.00537 22.9718C9.1091 20.7505 11.1937 18.5481 13.2882 16.3358C11.1944 13.5648 9.10833 10.8044 7 8.01367C7.10891 8.00911 7.18177 8.00304 7.25539 8.00304C8.6658 8.00304 10.0762 8.00304 11.4866 8C11.6132 8 11.6983 8.03568 11.7758 8.13893C12.5719 9.19723 13.3718 10.2517 14.1717 11.307C14.6917 11.9941 15.2124 12.6804 15.7332 13.3667C15.7823 13.4312 15.836 13.4927 15.8989 13.5694C16.0338 13.4282 16.1566 13.3014 16.277 13.1731C17.8538 11.5044 19.4322 9.83646 21.0059 8.16474C21.1149 8.04859 21.2245 7.99469 21.3871 8.00152C21.6801 8.01367 21.9738 8.00456 22.2676 8.0038C22.3351 8.0038 22.4018 8.0038 22.4693 8.0038C22.4746 8.0167 22.4792 8.03037 22.4846 8.04327C20.489 10.1576 18.4934 12.2727 16.4994 14.3862C18.6629 17.2468 20.818 20.0953 22.9985 22.9787L23 22.9779ZM9.0117 8.98846C9.05004 9.04539 9.06231 9.06513 9.07689 9.08411C9.93356 10.2153 10.7895 11.3465 11.6469 12.4769C13.029 14.2989 14.4118 16.1195 15.793 17.9422C16.7762 19.2397 17.7587 20.5379 18.7381 21.8384C18.8171 21.9431 18.9014 21.9955 19.0387 21.994C19.6515 21.9872 20.2643 21.991 20.8763 21.9894C20.9239 21.9894 20.9714 21.9826 21.0297 21.9781C21.0144 21.9447 21.0098 21.9272 20.999 21.9135C20.5972 21.3836 20.193 20.8552 19.7911 20.3253C17.7633 17.65 15.7347 14.9746 13.7077 12.2985C12.9239 11.2637 12.1393 10.229 11.3601 9.18964C11.2565 9.05223 11.1515 8.97707 10.9674 8.9839C10.5786 8.99832 10.189 8.98846 9.80011 8.98846C9.55162 8.98846 9.30313 8.98846 9.0117 8.98846Z" fill="white"></path></svg>